<?xml version="1.0" encoding="UTF-8" standalone="no"?>
<svg
   xmlns:dc="http://purl.org/dc/elements/1.1/"
   xmlns:cc="http://creativecommons.org/ns#"
   xmlns:rdf="http://www.w3.org/1999/02/22-rdf-syntax-ns#"
   xmlns:svg="http://www.w3.org/2000/svg"
   xmlns="http://www.w3.org/2000/svg"
   xmlns:sodipodi="http://sodipodi.sourceforge.net/DTD/sodipodi-0.dtd"
   xmlns:inkscape="http://www.inkscape.org/namespaces/inkscape"
   inkscape:version="1.0 (4035a4fb49, 2020-05-01)"
   sodipodi:docname="LOGOsvg.svg"
   viewBox="0 0 1436.0642 371.74713"
   height="371.74713"
   width="1436.0642"
   id="svg833"
   version="1.1">
  <metadata
     id="metadata839">
    <rdf:RDF>
      <cc:Work
         rdf:about="">
        <dc:format>image/svg+xml</dc:format>
        <dc:type
           rdf:resource="http://purl.org/dc/dcmitype/StillImage" />
        <dc:title></dc:title>
      </cc:Work>
    </rdf:RDF>
  </metadata>
  <defs
     id="defs837" />
  <sodipodi:namedview
     inkscape:current-layer="g841"
     inkscape:window-maximized="1"
     inkscape:window-y="-9"
     inkscape:window-x="-9"
     inkscape:cy="502.40633"
     inkscape:cx="1201.6364"
     inkscape:zoom="0.40112237"
     showgrid="false"
     id="namedview835"
     inkscape:window-height="1001"
     inkscape:window-width="1920"
     inkscape:pageshadow="2"
     inkscape:pageopacity="0"
     guidetolerance="10"
     gridtolerance="10"
     objecttolerance="10"
     borderopacity="1"
     bordercolor="#666666"
     pagecolor="#ffffff" />
  <g
     transform="translate(-3.7998052,-594.78906)"
     id="g841"
     inkscape:label="Image"
     inkscape:groupmode="layer">
    <path
       d="m 814.3457,594.78906 c -4.32187,0 -16.23182,13.38649 -18.3789,20.65821 -0.97553,3.30391 -2.39187,6.00971 -3.14844,6.01171 -1.30171,0.003 -19.37695,20.51438 -19.37695,21.98829 0,0.382 -3.2987,5.48592 -7.33203,11.34179 -4.03334,5.85586 -7.33399,10.96952 -7.33399,11.36524 0,0.70916 -5.34641,9.11842 -18.14258,28.53125 -3.58792,5.44317 -7.17617,10.98911 -7.97461,12.32422 -0.79844,1.33512 -2.41548,3.4912 -3.59179,4.79101 -1.17632,1.2998 -4.00871,6.36055 -6.29493,11.2461 -2.28623,4.88555 -5.02049,9.59845 -6.07617,10.4746 -1.0557,0.87614 -1.91992,2.15526 -1.91992,2.8418 0,1.49241 -7.20035,10.82209 -12.33398,15.98242 -2.01666,2.02716 -3.66602,4.56328 -3.66602,5.63477 0,1.07148 -1.50064,3.1282 -3.33398,4.57031 -1.83333,1.44211 -3.33203,3.81097 -3.33203,5.26563 0,1.45466 -0.9,3.39176 -2,4.30468 -1.1,0.91292 -1.9991,2.3372 -1.9961,3.16407 0.002,0.82688 -1.28639,4.2039 -2.86133,7.5039 -1.57493,3.3 -3.74191,8.09935 -4.8164,10.66602 -1.07448,2.56666 -2.47746,5.56601 -3.11914,6.66601 -2.29031,3.92618 -5.20703,11.02036 -5.20703,12.66602 0,0.92066 -0.9,2.42106 -2,3.33398 -1.1,0.91292 -2,2.68676 -2,3.94141 0,1.25466 -0.39815,2.6794 -0.88477,3.16602 -0.48663,0.48662 -1.97308,3.97432 -3.30273,7.75 -2.61783,7.43361 -6.10924,12.195 -8.0586,10.99023 -2.2612,-1.39749 -10.39105,7.88934 -10.40625,11.88672 -0.0141,3.70292 -2.82783,10.42219 -5.97265,14.26562 -0.90006,1.1 -2.41003,4.86691 -3.35547,8.36914 -0.94543,3.50223 -2.18497,6.65424 -2.75391,7.00586 -0.56893,0.35161 -1.46118,3.17273 -1.98438,6.26953 -0.5232,3.09683 -1.87856,7.04599 -3.01171,8.7754 -1.13316,1.7294 -2.55856,5.79269 -3.16602,9.02929 -0.60744,3.2366 -1.64018,8.73541 -2.29492,12.21875 -1.35641,7.21644 -0.35805,9.24182 4.95508,10.05469 7.86364,1.20305 9.43403,0.87004 12.13867,-2.56836 1.51989,-1.93223 2.77667,-5.08223 2.79297,-7 0.0163,-1.91777 1.20267,-4.98697 2.63672,-6.82031 1.43406,-1.83333 2.62237,-4.06226 2.63867,-4.95313 0.0163,-0.89087 1.22864,-2.26193 2.69531,-3.04687 1.68269,-0.90056 2.66602,-2.79136 2.66602,-5.125 0,-2.03404 0.8823,-4.86362 1.95898,-6.28711 1.07667,-1.4235 1.9767,-3.86439 2,-5.42578 0.051,-3.4155 6.16518,-17.23574 9.58984,-21.67578 1.34895,-1.7489 2.45118,-4.06862 2.45118,-5.15625 0,-1.08763 1.8,-4.02756 4,-6.53321 2.2,-2.50567 4,-5.49843 4,-6.65039 0,-1.15196 1.50064,-3.87784 3.33398,-6.05664 1.83333,-2.17879 3.33399,-5.01785 3.33399,-6.31054 -10e-6,-1.2927 1.4987,-3.03381 3.33203,-3.86915 2.54691,-1.16044 3.33398,-2.52776 3.33398,-5.79492 0,-2.35179 1.12788,-5.51536 2.50586,-7.02929 1.378,-1.51393 4.63822,-6.81998 7.24609,-11.79102 2.60786,-4.97105 6.28129,-10.86634 8.16211,-13.10156 1.88081,-2.23522 3.41993,-5.24203 3.41993,-6.68164 0,-3.61013 4.82564,-12.75713 10.1914,-19.31641 2.46137,-3.00886 4.47461,-6.05428 4.47461,-6.76758 0,-0.71331 1.50065,-2.7054 3.33399,-4.42773 1.83332,-1.72233 3.33203,-4.22207 3.33203,-5.55469 0,-1.33263 1.22826,-3.17868 2.72851,-4.10156 1.50024,-0.92288 4.23279,-5.01758 6.07227,-9.09961 2.09476,-4.64853 4.8114,-8.28899 7.27148,-9.74219 2.16028,-1.27612 3.92774,-2.87573 3.92774,-3.55469 0,-0.67896 2.40065,-5.15477 5.33398,-9.94726 2.93333,-4.79249 5.33399,-9.30122 5.33399,-10.01953 0,-0.71831 2.09934,-3.62973 4.66601,-6.47071 2.56667,-2.84099 4.66602,-5.78302 4.66602,-6.53711 0,-0.75409 1.95065,-4.29879 4.33398,-7.87695 2.38333,-3.57817 5.14166,-8.28795 6.12891,-10.4668 0.98726,-2.17887 2.62617,-5.46159 3.64258,-7.29492 1.0164,-1.83334 2.73434,-5.13398 3.81835,-7.33398 1.08403,-2.2 4.45357,-6.7 7.48633,-10 3.03277,-3.3 6.70854,-8.52027 8.16797,-11.59961 1.45942,-3.07933 3.50032,-6.30165 4.53711,-7.16211 1.03679,-0.86045 1.88477,-2.95536 1.88477,-4.6543 0,-1.69894 2.40065,-5.8608 5.33398,-9.25 3.54491,-4.09583 5.33399,-7.44172 5.33399,-9.97851 0,-4.7527 -5.90379,-12.02149 -9.76368,-12.02149 z m 20.42969,13.26367 -4.25391,2.20118 c -3.82444,1.97769 -4.02636,2.36594 -2,3.84765 1.78261,1.30347 2.25391,3.82128 2.25391,12.04102 0,10.31556 -0.0197,10.3748 -2.67187,7.97461 -12.10664,-10.95635 -21.83375,33.49791 -10.48633,47.92383 3.27304,4.16098 8.28984,4.43964 10.97265,0.60937 l 1.96485,-2.80469 0.44336,2.9375 0.44336,2.9375 3.73632,-2.95117 c 3.41656,-2.69875 3.56045,-3.1471 1.66797,-5.23828 -1.75527,-1.93954 -2.07031,-7.38904 -2.07031,-35.88281 z m -514.875,7.11524 c -0.94261,0.10641 -1.71178,0.9913 -2.35742,2.68945 -0.69829,1.83665 -1.96692,3.76946 -2.82031,4.29688 -0.8534,0.52743 -2.41113,2.83705 -3.46094,5.13086 -2.1186,4.62909 -8.1726,15.63351 -9.12305,16.58398 -0.33493,0.33492 -1.97833,0.82033 -3.65234,1.07813 -7.42425,1.14333 -13.94164,2.8317 -16.73828,4.33593 -1.66515,0.89572 -3.59688,1.27593 -4.29297,0.84571 -0.69611,-0.43021 -4.12933,0.74249 -7.62891,2.60547 -3.49957,1.86297 -7.2461,3.38671 -8.32617,3.38671 -1.08007,0 -6.78529,2.37334 -12.67773,5.27344 -11.79877,5.80705 -17.69556,12.19804 -16.04688,17.39258 1.42784,4.4987 6.20011,5.98107 11.50391,3.57227 15.05795,-6.83878 39.83008,-12.45945 39.83008,-9.03711 0,0.7333 -0.92879,1.85468 -2.06446,2.49023 -1.13567,0.63554 -3.98632,4.74443 -6.33398,9.13281 -2.34767,4.3884 -7.11823,12.30514 -10.60156,17.5918 -3.48333,5.28668 -6.33399,9.93163 -6.33399,10.32227 0,0.39061 -2.41368,3.90905 -5.36523,7.81835 -2.95154,3.9093 -6.85839,10.90931 -8.67969,15.55665 -1.82128,4.64735 -5.02164,10.27339 -7.11328,12.50195 -2.09163,2.22854 -4.93674,6.15208 -6.32227,8.71875 -1.38554,2.56667 -4.16887,6.63802 -6.18554,9.04687 -2.01667,2.40884 -3.66797,5.22953 -3.66797,6.26758 0,1.03804 -1.00273,2.44769 -2.23047,3.13477 -1.91637,1.07245 -5.14865,9.5081 -6.23633,16.27734 -0.18199,1.1326 -1.35048,3.5163 -2.59766,5.29688 -1.24716,1.78057 -2.26757,3.9194 -2.26757,4.7539 0,0.83449 -1.54131,3.78947 -3.42579,6.56641 -1.88448,2.77694 -5.26151,9.31081 -7.5039,14.51953 -5.29685,12.30372 -8.01889,17.97351 -14.45117,30.11133 -2.90749,5.48651 -5.28711,10.73781 -5.28711,11.66797 0,0.93016 -0.51669,1.6914 -1.15039,1.6914 -0.63371,0 -2.22198,2.8487 -3.52735,6.33203 -1.30538,3.48333 -3.72356,8.73463 -5.375,11.66797 -1.65144,2.93333 -3.44482,6.83269 -3.98437,8.66602 -0.53955,1.83334 -2.86778,6.33334 -5.17578,10 -2.30798,3.66667 -5.23145,8.56313 -6.4961,10.88086 -2.65672,4.86899 -3.47249,15.39198 -1.25,16.13281 0.82395,0.27465 3.47801,1.90777 5.89649,3.62891 2.4185,1.72114 5.61749,3.18134 7.10937,3.24414 3.43158,0.14446 7.28711,-6.15281 7.28711,-11.90039 0,-2.60776 1.29753,-5.80833 3.33399,-8.22852 1.83333,-2.17878 3.33203,-4.85155 3.33203,-5.9375 0,-2.18581 5.21008,-11.95626 9.38671,-17.60547 1.47858,-1.99988 3.06351,-5.94533 3.52149,-8.76758 0.458,-2.82227 2.83986,-8.4679 5.29492,-12.54492 2.45505,-4.07702 4.46199,-8.04775 4.45899,-8.82422 -0.003,-0.77648 3.33378,-8.14907 7.4121,-16.38476 5.70113,-11.51278 8.76458,-16.0818 13.25782,-19.76367 3.48634,-2.85678 5.55801,-5.53373 5.13476,-6.63672 -1.07295,-2.79605 2.1672,-11.38137 6.27539,-16.62696 2.01015,-2.56666 4.10192,-6.16666 4.64844,-8 0.54652,-1.83333 2.40694,-5.18977 4.13477,-7.45898 1.72781,-2.26923 3.14258,-5.13901 3.14258,-6.37891 0,-3.1821 3.61655,-8.66177 9.5664,-14.49218 3.54638,-3.4752 5.09961,-6.15333 5.09961,-8.79297 0,-2.10256 1.18894,-4.87224 2.66602,-6.20899 1.46667,-1.32732 2.66797,-3.19932 2.66797,-4.16015 0,-0.96083 1.64934,-3.71812 3.66601,-6.12696 6.8278,-8.15561 9.66602,-12.92798 9.66602,-16.24804 0,-1.81975 0.66255,-3.71734 1.4707,-4.2168 0.80816,-0.49947 2.37084,-3.06413 3.47266,-5.70117 1.96556,-4.70426 3.33899,-6.72098 12.05664,-17.6836 2.38334,-2.99708 4.33398,-6.49817 4.33398,-7.77929 0,-1.28112 1.22903,-3.77291 2.73047,-5.53907 1.50146,-1.76617 5.25551,-7.11223 8.34375,-11.8789 3.08825,-4.76666 6.95987,-9.25852 8.60351,-9.98242 1.64365,-0.72389 2.98829,-2.3752 2.98829,-3.66797 0,-1.88264 1.26127,-2.39615 6.33398,-2.58203 3.48333,-0.12764 8.13399,-0.46242 10.33399,-0.74414 2.19999,-0.28171 10.3,-0.68373 18,-0.89258 21.79312,-0.59113 48.30917,-3.47021 51.66601,-5.61133 3.52549,-2.24869 3.62834,-4.64844 0.50391,-11.72266 l -2.29688,-5.20312 -11.26953,0.16406 c -28.68449,0.41454 -54.49614,1.56044 -60.27148,2.67578 -3.48334,0.67271 -6.33203,0.77481 -6.33203,0.22852 0,-0.54629 1.51631,-3.70446 3.36914,-7.01953 2.90062,-5.18977 3.14799,-6.51086 1.78515,-9.50196 -1.2339,-2.70812 -2.53964,-3.47461 -5.92578,-3.47461 -2.38897,0 -5.28578,-0.35957 -6.43555,-0.80078 -0.35436,-0.13598 -0.68775,-0.18781 -1.00195,-0.15234 z m 545.03711,18.4707 c -0.34127,0.005 -0.68733,0.0231 -1.03711,0.0566 -3.85952,0.36977 -4.9052,1.32213 -7.79101,7.09375 -2.86865,5.73729 -3.32711,8.43118 -3.28711,19.33203 0.0383,10.42715 0.56667,13.65581 2.99023,18.26172 1.61924,3.07734 3.99862,6.21058 5.28711,6.96094 3.70893,2.15993 6.31727,1.68636 9.52539,-1.72852 8.86946,-9.44112 8.99415,-40.15631 0.19531,-48.11914 -1.35247,-1.22396 -3.49389,-1.88951 -5.88281,-1.85742 z m 39.6582,0.0469 c -7.93251,-0.10528 -12.33651,8.76503 -12.41992,25.10351 -0.0618,12.10301 1.59245,18.59788 6.10352,23.95899 3.78308,4.49592 6.51394,5.01413 10.75586,2.04297 8.06715,-5.65045 10.64219,-31.44631 4.39257,-44.00196 -2.95008,-5.92681 -3.84338,-6.71061 -8.05273,-7.06445 -0.2632,-0.0221 -0.52341,-0.0357 -0.7793,-0.0391 z m -79.82226,2.65039 c 0.12697,0.008 0.25678,0.0238 0.38672,0.0488 4.15472,0.80012 5.5753,6.49858 5.5957,22.43945 0.015,11.77743 -0.46619,16.06329 -2.05664,18.33398 -2.5034,3.57411 -3.53209,3.67819 -6.2832,0.63086 -7.7235,-8.55514 -5.64174,-41.93958 2.35742,-41.45312 z m 39.19922,0.0254 c 0.72406,-0.0722 1.41111,0.50151 2.6914,1.66015 1.47035,1.33065 3.34083,5.71671 4.19922,9.85157 1.92232,9.25972 1.09031,29.8899 -1.32226,32.79687 -3.06966,3.69871 -6.71588,2.5429 -9.08594,-2.88086 -1.59548,-3.65118 -2.20693,-9.21647 -2.26563,-20.62695 -0.0741,-14.40912 0.15002,-15.85547 2.87305,-18.58203 1.42656,-1.42843 2.1861,-2.14659 2.91016,-2.21875 z m 39.70703,0.0566 c 1.58498,0.1841 3.27864,2.08442 5.07226,5.70312 2.1465,4.33067 2.64917,8.09065 2.66797,20 0.0151,9.54213 -0.57655,15.71617 -1.6914,17.66797 -2.48763,4.35514 -6.48094,3.77252 -9.14844,-1.33398 -3.33438,-6.38313 -4.18743,-30.57419 -1.32031,-37.43555 1.35911,-3.2525 2.83493,-4.78566 4.41992,-4.60156 z M 160.3125,662.34375 c -3.60367,-0.0405 -7.7712,1.77103 -9.29492,5.11523 -0.80295,1.76228 -5.38741,8.3482 -10.18555,14.63672 -4.79812,6.28852 -8.72265,12.33218 -8.72265,13.42969 0,1.0975 1.44103,2.54294 3.20312,3.21289 1.76209,0.66994 3.59365,1.84984 4.07031,2.6211 1.22334,1.9794 14.0586,-4.73071 14.0586,-7.34961 0,-1.13657 1.42308,-3.97615 3.16015,-6.31055 5.42588,-7.2917 10.38698,-18.55062 9.58399,-21.75 -0.60804,-2.42262 -3.07019,-3.57399 -5.87305,-3.60547 z m 724.47461,11.76563 c -0.40925,0.019 -0.86435,0.28019 -1.4375,0.75585 -1.94583,1.61489 -2.62519,8.09358 -1.01758,9.70118 3.55053,3.55053 7.19336,-3.30799 4.46485,-8.40625 -0.77125,-1.44109 -1.32769,-2.08253 -2.00977,-2.05078 z m 39.32227,0.0117 c -2.12275,0 -3.4497,6.03836 -2.09961,9.55664 1.44354,3.76177 4.09961,0.95439 4.09961,-4.33398 0,-3.7531 -0.56267,-5.22266 -2,-5.22266 z m -79.09376,0.15235 c -0.76899,0.0258 -1.57555,0.60826 -2.25976,1.88672 -0.84684,1.58232 -1.16812,4.36008 -0.71289,6.17382 1.19615,4.76586 5.28626,3.58861 5.80078,-1.66992 0.37323,-3.81463 -1.13633,-6.4475 -2.82813,-6.39062 z m -167.32421,16.85742 c -0.93776,0.0181 -1.97087,0.14705 -3.22266,0.35352 -3.13147,0.51649 -10.67958,3.33891 -16.77344,6.27343 -8.6221,4.152 -11.80012,6.47944 -14.33203,10.49024 -1.78948,2.83472 -3.25867,6.21576 -3.26367,7.51367 -0.005,1.29791 -1.2012,4.15937 -2.6582,6.35937 -3.18246,4.80536 -3.40651,9.05882 -0.60157,11.38672 1.6956,1.40722 2.88498,1.32258 6.66602,-0.48047 2.53144,-1.20716 4.60352,-2.8516 4.60352,-3.65429 0,-4.06356 17.86272,-17.1163 23.57031,-17.22266 3.97436,-0.0741 5.83539,4.10942 4.93554,11.0957 -1.26766,9.8417 -2.2589,11.89597 -10.82812,22.41993 -4.2229,5.1862 -9.01956,11.28215 -10.66016,13.54687 -1.6406,2.26472 -4.0127,4.69314 -5.26953,5.39649 -1.25684,0.70335 -3.63122,2.87962 -5.27734,4.83593 -1.64612,1.95629 -6.10326,5.17054 -9.9043,7.14258 -11.36088,5.89424 -22.3955,14.2375 -33.73633,25.50977 -5.88941,5.85381 -11.63607,10.65467 -12.76953,10.66796 -1.18064,0.0134 -2.2538,1.44582 -2.51172,3.35547 -0.59589,4.41187 -5.29285,9.33399 -8.9082,9.33399 -3.54772,0 -6.78579,3.40496 -8.04883,8.46484 -0.62778,2.51496 -2.20974,4.23849 -4.68555,5.10156 -3.7173,1.29585 -12.20847,11.32411 -16.32226,19.2793 -1.18429,2.29016 -3.06612,4.51455 -4.18359,4.94336 -1.11745,0.4288 -3.80794,3.65204 -5.97852,7.16211 -2.17059,3.51005 -5.17093,7.13334 -6.66797,8.05078 -3.75666,2.30221 -13.69825,17.40869 -19.51758,29.66016 -4.63687,9.76202 -2.76911,20.56492 3.78125,21.875 7.55881,1.51176 9.26005,0.76254 19.31446,-8.50196 7.56055,-6.96659 12.39059,-10.2018 19.2539,-12.89453 6.52777,-2.56108 9.57148,-3.18243 10.5918,-2.16211 2.3218,2.3218 0.0118,11.56788 -4.61133,18.45313 -4.06238,6.05018 -6.71962,10.58159 -9.11719,15.55078 -1.9472,4.03578 -1.217,9.84675 1.55079,12.35156 1.46666,1.32732 2.66601,3.20926 2.66601,4.18164 0,0.97236 1.64935,2.13138 3.66602,2.57618 2.01667,0.44477 4.26667,1.0145 5,1.26757 3.06729,1.05849 5.36401,-0.25835 5.79882,-3.32812 0.25517,-1.8015 1.60517,-4.72676 3,-6.5 1.39483,-1.77324 2.55483,-5.09251 2.57813,-7.37695 0.0233,-2.28444 0.92334,-5.3187 2,-6.74219 1.07668,-1.4235 1.95703,-3.63358 1.95703,-4.91016 0,-1.27656 1.8,-3.60144 4,-5.16797 2.5276,-1.79982 4,-4.01867 4,-6.02539 0,-1.74664 1.7573,-5.77772 3.9043,-8.95898 2.147,-3.18124 4.3149,-7.42568 4.81836,-9.43164 0.50346,-2.00596 1.92083,-4.38365 3.15039,-5.28321 2.96127,-2.16652 10.14976,-12.31361 12.96289,-18.30078 2.39451,-5.09624 14.75032,-25.15452 18.07031,-29.33398 2.03885,-2.56667 6.41978,-8.07694 9.73438,-12.24414 3.31462,-4.16722 6.02539,-8.77061 6.02539,-10.23047 0,-1.45986 1.41234,-4.35091 3.13671,-6.42383 1.72439,-2.07293 3.92152,-5.26823 4.88282,-7.10156 0.96132,-1.83334 3.37267,-5.43334 5.35937,-8 3.69162,-4.76927 5.90142,-8.76192 13.27735,-24 5.54312,-11.45165 12.15724,-23.12815 14.83984,-26.19531 2.77466,-3.17243 5.21438,-7.89474 5.89062,-11.40625 0.29265,-1.51951 1.38441,-3.73117 2.42774,-4.91407 1.91253,-2.16837 3.06073,-7.86277 4.36523,-21.66797 0.60878,-6.44246 0.23418,-8.27139 -2.61523,-12.78515 -1.82868,-2.89681 -6.36645,-7.21799 -10.08398,-9.60352 -4.45822,-2.86083 -6.41722,-3.80633 -9.23047,-3.75195 z m -442.01563,0.0547 c -1.56244,0.0278 -3.34363,0.95162 -7.19531,3.03515 -3.87076,2.09385 -7.03906,4.25502 -7.03906,4.80274 0,1.19514 -9.51334,11.67449 -15.93555,17.55273 -2.53139,2.31698 -8.91218,8.42471 -14.17969,13.57227 -5.2675,5.14756 -11.29538,10.23561 -13.39648,11.30859 -2.10111,1.07297 -5.61163,3.63917 -7.80078,5.70117 -4.46567,4.20626 -6.4496,2.42922 -2.37891,-2.13086 1.42612,-1.59759 3.94591,-5.60625 5.59961,-8.90625 1.65371,-3.3 4.09341,-7.19934 5.42187,-8.66601 3.78582,-4.17964 6.66242,-12.37744 5.82032,-16.58789 -1.06725,-5.33625 -8.26978,-9.21106 -13.0625,-7.02735 -3.65213,1.66402 -8.74005,8.88176 -8.74805,12.41016 -0.003,1.17026 -4.2065,8.48726 -9.33984,16.25977 -5.13333,7.7725 -9.33203,14.93832 -9.33203,15.92382 -10e-6,0.98551 -1.26454,4.16722 -2.8086,7.07227 -1.54406,2.90506 -5.85797,11.28189 -9.58789,18.61523 -3.7299,7.33333 -9.06666,16.23793 -11.85937,19.78711 -2.79269,3.54919 -5.07813,7.48104 -5.07813,8.73828 0,1.25724 -1.67672,4.95461 -3.72656,8.21485 -3.85035,6.12391 -18.985689,36.17366 -23.498049,46.65234 -1.4074,3.26828 -3.609148,8.34205 -4.892578,11.27539 -1.28341,2.93333 -2.678419,6.23203 -3.099609,7.33203 -0.42118,1.1 -1.264487,2.9 -1.873047,4 -5.95761,10.76877 -9.576172,19.08166 -9.576172,21.99414 0,8.85087 6.191717,11.76451 15.460937,7.27735 5.38583,-2.60724 6.535958,-3.95932 5.992188,-7.05078 -0.10779,-0.61287 1.020202,-3.08516 2.507812,-5.49219 1.487631,-2.40703 2.705079,-5.65309 2.705079,-7.21484 0,-1.56174 2.099345,-5.76332 4.666015,-9.33594 2.566674,-3.5726 4.667974,-7.15041 4.667974,-7.95117 -1e-5,-0.80075 3.2987,-6.30324 7.33203,-12.22657 4.03333,-5.92333 7.33398,-11.37692 7.33398,-12.12109 0,-0.74419 1.59221,-3.34768 3.53711,-5.78516 1.94492,-2.43748 3.71168,-6.07587 3.92578,-8.08398 0.2141,-2.0081 1.92256,-5.86372 3.79688,-8.56836 1.87434,-2.70465 3.40625,-5.91442 3.40625,-7.13281 0,-1.2184 1.8,-4.26582 4,-6.77149 2.2,-2.50565 4,-5.48957 4,-6.63281 0,-1.14324 0.58512,-2.43977 1.29882,-2.88086 0.71371,-0.4411 2.31889,-2.95679 3.56836,-5.58984 3.90145,-8.22171 14.64402,-17.29945 32.80079,-27.71875 3.48332,-1.99891 6.33203,-4.17619 6.33203,-4.83985 0,-0.66365 0.60064,-1.20703 1.33398,-1.20703 2.48438,0 1.35118,3.00692 -4.46875,11.84961 -3.19171,4.84941 -7.78596,12.71576 -10.20898,17.48242 -2.42304,4.76667 -6.3753,10.76732 -8.78321,13.33399 -2.4079,2.56666 -6.8376,10.06601 -9.84179,16.66601 -3.0042,6.6 -6.44195,13.8 -7.64063,16 -6.20598,11.39016 -12.39062,23.72854 -12.39062,24.72071 0,1.90139 -10.11936,22.57532 -17.92188,36.61328 -8.41484,15.13965 -9.06914,19.16813 -3.79297,23.31836 2.35845,1.85514 4.56046,2.54522 6.33203,1.98242 1.49418,-0.47468 3.8894,-0.83945 5.32227,-0.81055 3.3787,0.0682 6.06055,-2.20766 6.06055,-5.14062 0,-1.27797 1.14346,-3.77605 2.54101,-5.55274 1.39754,-1.77669 4.06765,-6.98498 5.93164,-11.57226 1.86399,-4.58729 4.9192,-10.16025 6.79102,-12.38477 1.8718,-2.22452 3.4043,-4.92993 3.4043,-6.01172 -10e-6,-1.08177 1.15072,-4.18453 2.55664,-6.89648 1.40593,-2.71196 3.20147,-6.4323 3.99023,-8.26563 0.78875,-1.83333 1.93573,-4.23203 2.55078,-5.33203 3.36484,-6.0179 5.56836,-11.11325 5.56836,-12.8789 0,-1.09808 2.40065,-4.37319 5.33399,-7.27735 3.81411,-3.77619 5.33203,-6.39746 5.33203,-9.19922 0,-2.70761 1.03026,-4.5921 3.33398,-6.10156 2.29038,-1.5007 3.33399,-3.39699 3.33399,-6.06055 0,-4.18892 9.43634,-15.8164 12.83593,-15.8164 1.12735,0 1.83008,-1.47261 1.83008,-3.83594 0,-2.1102 0.9,-4.58513 2,-5.49805 1.1,-0.91292 2,-3.17945 2,-5.03711 0,-1.85765 1.50066,-5.34442 3.33399,-7.74804 1.83333,-2.40363 3.33203,-5.25907 3.33203,-6.34571 0,-1.08663 1.17869,-3.3756 2.61914,-5.08789 7.33258,-8.71641 9.38086,-11.6776 9.38086,-13.56054 0,-1.13418 0.58441,-2.42296 1.29687,-2.86328 0.71245,-0.44032 2.52239,-3.57734 4.02344,-6.97071 1.50106,-3.39338 3.87053,-6.96815 5.26562,-7.94531 1.3951,-0.97716 2.92266,-3.53517 3.39454,-5.68359 0.47185,-2.14842 1.76009,-4.65443 2.86132,-5.56836 2.93894,-2.43911 5.82618,-8.57251 5.82618,-12.37696 0,-1.82648 0.58345,-3.68212 1.29687,-4.12304 1.98728,-1.2282 4.33283,-11.32314 3.44922,-14.84375 -0.43208,-1.72152 -2.7086,-4.12556 -5.06055,-5.3418 -1.82028,-0.94131 -2.90391,-1.46109 -4.11914,-1.43945 z m 237.07813,7.26172 c -1.75868,0.0267 -3.3889,0.97797 -5.13868,2.82226 -1.8361,1.93527 -4.12724,4.20899 -5.08984,5.05274 -0.9626,0.84376 -4.74936,5.56345 -8.41601,10.48828 -3.66667,4.92483 -10.3329,13.26232 -14.8125,18.52734 -4.47964,5.26503 -9.70039,11.94598 -11.60352,14.8457 -1.90314,2.89974 -5.36081,7.37083 -7.68359,9.9375 -2.46552,2.72441 -3.32814,3.28 -2.07227,1.33399 8.38169,-12.98769 9.42809,-15.45818 9.93555,-23.42774 0.28756,-4.51606 -0.13597,-9.44229 -0.94141,-10.94726 -2.48458,-4.6425 -13.7939,-7.59525 -28.82226,-7.52735 -12.57807,0.0567 -13.91182,0.33766 -23.53907,4.98047 -5.61294,2.70688 -11.26381,4.92188 -12.55664,4.92188 -2.64996,0 -18.4936,8.35691 -22.57226,11.90625 -1.46667,1.27632 -4.79931,3.29312 -7.40625,4.48047 -5.36298,2.44259 -23.77072,17.36271 -27.90235,22.61523 -1.49827,1.90473 -6.71963,6.64072 -11.60156,10.52539 l -8.87695,7.0625 -13.3418,0.53711 c -11.55178,0.46398 -13.77452,0.93692 -16.57031,3.5293 -1.81737,1.68518 -3.01879,4.0864 -2.74805,5.49219 0.53493,2.77765 5.99083,5.84353 11.43359,6.42382 1.95468,0.2084 3.76767,1.01981 4.0293,1.80469 0.57069,1.71208 -5.89973,12.28906 -7.51758,12.28906 -0.6244,0 -2.85776,2.5513 -4.96484,5.66797 -2.10707,3.11667 -6.00781,7.83729 -8.66797,10.49024 -2.66016,2.65295 -6.37521,8.07539 -8.25586,12.05078 -1.88067,3.9754 -6.07991,10.65567 -9.33203,14.84375 -3.25212,4.18809 -6.93184,10.46369 -8.17578,13.94726 -1.24393,3.48357 -3.20713,8.43333 -4.36328,11 -2.905,6.44915 -2.52067,29.90162 0.56836,34.66797 2.61325,4.03221 5.7332,6.56585 8.15429,6.62305 0.9868,0.0233 3.38745,1.1559 5.33399,2.51562 5.18236,3.62006 9.72172,4.3439 17.72461,2.82618 4.65551,-0.8829 8.18544,-2.49697 10.18945,-4.65821 1.68654,-1.81886 3.93053,-3.30664 4.98633,-3.30664 2.57437,0 20.40151,-12.40216 22.84766,-15.89453 1.06837,-1.52532 3.00588,-2.77344 4.30664,-2.77344 3.64017,0 10.31562,-10.41372 11.40039,-17.78515 0.76063,-5.16874 0.49202,-6.95853 -1.35547,-9 -3.15338,-3.48442 -6.49484,-3.19621 -9.10352,0.78515 -1.20125,1.83333 -3.27549,3.33399 -4.60742,3.33399 -1.33192,0 -4.33235,2.09934 -6.66797,4.66601 -2.33561,2.56667 -5.02609,4.66797 -5.98047,4.66797 -0.95439,0 -3.19091,1.55599 -4.96875,3.45899 -1.77783,1.90301 -5.03242,4.37412 -7.23242,5.49023 -2.2,1.11609 -5.19935,3.1217 -6.66601,4.45703 -2.81766,2.56534 -14.72215,6.31496 -15.99805,5.03907 -2.0509,-2.05091 -2.27764,-14.73961 -0.33594,-18.81641 1.12548,-2.36304 3.41327,-7.29622 5.08399,-10.96289 1.6707,-3.66666 5.03487,-9.65953 7.47656,-13.31641 2.4417,-3.65688 4.43945,-7.10401 4.43945,-7.66211 0,-1.30046 9.03585,-13.89889 13.13477,-18.3125 1.7245,-1.85689 5.92514,-6.975 9.33398,-11.375 10.02298,-12.93725 22.04576,-24.15979 27.06641,-25.26367 2.45587,-0.53996 8.36419,-1.18642 13.13086,-1.4375 4.76666,-0.25108 12.48775,-1.3596 17.15625,-2.46289 6.07453,-1.43559 12.46569,-1.80018 22.47656,-1.2832 10.58616,0.54666 15.17035,0.24522 18.8457,-1.24024 6.53126,-2.63974 14.02626,-4.98047 15.95117,-4.98047 2.28385,0 1.92459,3.55675 -0.66406,6.58008 -1.22948,1.43592 -4.83325,7.48163 -8.00781,13.4336 -3.17454,5.95198 -8.22416,14.43115 -11.2207,18.84375 -2.99653,4.41258 -6.61931,10.52607 -8.05079,13.58398 -1.43146,3.0579 -4.98466,9.15859 -7.89648,13.55859 -2.91181,4.4 -6.3346,9.70761 -7.60742,11.79493 -1.27282,2.08732 -5.43463,8.38732 -9.24805,14 -8.56083,12.59998 -13.73233,21.3991 -13.73633,23.37304 -0.002,0.82431 -2.10318,4.97903 -4.66797,9.23242 -2.56478,4.25338 -4.6621,8.79945 -4.6621,10.10157 -10e-6,2.43593 3.96252,6.67632 8.66601,9.27343 1.46667,0.80984 2.96732,1.32789 3.33399,1.1504 9.96031,-4.82159 16,-10.48118 16,-14.99219 -10e-6,-1.93685 0.86764,-5.11407 1.92773,-7.06055 1.06008,-1.94648 2.88465,-5.69655 4.05469,-8.33398 1.17005,-2.63742 5.10175,-8.13475 8.73828,-12.21485 3.63652,-4.08009 6.61133,-8.27792 6.61133,-9.33008 0,-1.05214 1.26293,-3.05591 2.80468,-4.45117 1.54175,-1.39526 3.7141,-4.33733 4.82813,-6.53906 1.11402,-2.20174 4.35304,-7.44592 7.19726,-11.6543 2.84424,-4.20837 5.16993,-8.63602 5.16993,-9.83789 0,-1.20186 3.6687,-5.6973 8.15234,-9.99023 5.64472,-5.40464 7.89947,-8.46617 7.32813,-9.95508 -0.51596,-1.34457 0.55086,-3.56313 2.84765,-5.92188 6.76239,-6.94485 10.67356,-12.59995 14.89063,-21.52539 2.30262,-4.8735 5.08041,-9.20225 6.17187,-9.62109 1.09147,-0.41884 2.55948,-2.27679 3.26367,-4.12891 0.73252,-1.92668 2.33641,-3.36914 3.74805,-3.36914 1.35702,0 6.02274,-2.68244 10.36719,-5.96289 4.34445,-3.28047 8.57546,-5.9804 9.40234,-6 0.82687,-0.0195 2.30073,-0.99745 3.27539,-2.17187 2.10274,-2.53362 14.07687,-10.32788 20.21485,-13.15821 2.38662,-1.10052 10.93919,-5.57325 19.00586,-9.93945 8.06665,-4.36619 15.86536,-7.98803 17.33203,-8.04883 1.46667,-0.0608 4.16667,-1.2847 6,-2.71875 1.83333,-1.43406 4.40322,-2.62041 5.71093,-2.63671 1.30772,-0.0163 5.33717,-1.52899 8.95313,-3.36133 6.60083,-3.3449 10.18871,-7.54513 8.61719,-10.08789 -0.46371,-0.75031 -0.11869,-2.23682 0.76757,-3.30469 1.29818,-1.56422 1.19202,-1.94141 -0.55078,-1.94141 -1.18979,0 -2.16406,-0.83123 -2.16406,-1.8457 0,-1.98555 -3.96957,-3.45217 -9.33398,-3.45117 -3.88604,10e-4 -12.56041,2.8495 -22,7.22265 -3.66667,1.69869 -8.16667,3.53942 -10,4.08985 -1.83333,0.55043 -4.93859,2.13095 -6.90235,3.51367 -1.96376,1.38272 -6.33551,3.03079 -9.71484,3.66211 -3.37934,0.63133 -7.17279,2.03673 -8.42969,3.12305 -2.55963,2.21224 -8.28515,3.94123 -8.28515,2.50195 0,-1.30669 13.13181,-16.71972 14.70703,-17.26172 0.71042,-0.24445 1.29297,-1.2731 1.29297,-2.28711 -10e-6,-1.014 1.01115,-3.96674 2.24804,-6.56055 2.2452,-4.70823 2.24311,-4.72262 -1.66601,-8.49609 -3.20427,-3.09308 -5.67635,-4.58709 -7.9375,-4.55273 z m 92.67968,0.84179 c -4.79253,-0.004 -8.40284,5.32027 -15.16406,19.00196 -3.57816,7.2406 -8.85285,16.00202 -11.72265,19.4707 -2.8698,3.46868 -6.10173,8.42125 -7.18165,11.00586 -2.24849,5.38142 -10.47585,18.73514 -13.97851,22.6875 -1.29978,1.46667 -3.72877,5.36601 -5.39649,8.66601 -1.66772,3.3 -4.64016,8.40065 -6.60546,11.33399 -1.9653,2.93333 -7.26595,12.83333 -11.7793,22 -4.51334,9.16666 -10.87185,20.86666 -14.12891,26 -3.25704,5.13333 -5.94731,9.80023 -5.97851,10.37109 -0.0312,0.57087 -2.08657,5.37022 -4.56836,10.66602 -2.48178,5.2958 -5.7675,12.3289 -7.30078,15.6289 -1.53329,3.3 -3.31814,6.9 -3.9668,8 -2.98444,5.06096 -10.88672,22.90902 -10.88672,24.58789 0,1.0316 -1.50205,3.66004 -3.33789,5.8418 -7.5988,9.03066 -10.82661,21.88238 -6.56641,26.14258 2.88882,2.88883 7.88553,2.62309 15.51758,-0.82617 4.63402,-2.09432 6.69903,-3.88864 7.29102,-6.33399 0.45424,-1.87635 2.81025,-5.6346 5.23633,-8.35156 2.42608,-2.71696 5.57374,-7.21696 6.99414,-10 1.42038,-2.78304 3.92277,-6.25989 5.5625,-7.72656 1.63974,-1.46666 4.12631,-5.31905 5.52539,-8.56055 1.3991,-3.24151 4.59606,-8.164 7.10351,-10.93945 2.50746,-2.77546 5.80326,-7.48547 7.32422,-10.4668 2.00809,-3.93619 4.21357,-6.00137 8.05664,-7.53906 5.18991,-2.07659 5.81774,-2.93206 5.38672,-7.35547 -0.11763,-1.20706 2.45762,-4.38313 5.72266,-7.05859 3.26504,-2.67546 6.92051,-6.93852 8.12304,-9.47266 1.20255,-2.53416 2.71768,-4.60742 3.36719,-4.60742 0.64951,0 1.60598,-1.33741 2.125,-2.97266 0.51901,-1.63527 2.50814,-4.65942 4.42188,-6.7207 7.58679,-8.17169 16.41772,-17.94977 21.65039,-23.97266 3.02632,-3.48333 6.62673,-6.33398 8,-6.33398 1.7891,0 2.49609,-0.96587 2.49609,-3.4082 0,-2.0171 1.5498,-4.8746 3.79688,-7 4.482,-4.23929 11.38763,-14.24023 14.68164,-21.26368 1.99767,-4.25941 9.87861,-13.11391 30.74804,-34.54687 2.25924,-2.32024 4.10743,-4.86779 4.10743,-5.66211 0,-0.79431 1.99744,-3.6971 4.43945,-6.44922 2.44202,-2.75211 5.38837,-7.43029 6.54687,-10.39648 1.92916,-4.93943 1.92446,-5.69405 -0.0625,-8.96875 -2.92452,-4.81985 -4.81155,-5.30232 -8.71679,-2.23047 -1.81247,1.42568 -4.2157,2.59179 -5.3418,2.59179 -1.12608,0 -2.85857,1.1593 -3.84961,2.57422 -0.99106,1.41491 -3.46851,2.99061 -5.50586,3.50196 -2.0424,0.5126 -4.20843,2.25484 -4.82812,3.88476 -0.61816,1.62588 -2.97465,3.72334 -5.23633,4.66016 -2.2617,0.93682 -4.11328,2.32324 -4.11328,3.08008 0,0.75684 -2.8487,4.52174 -6.33203,8.36718 -3.48334,3.84544 -8.13399,9.70202 -10.33399,13.01563 -9.04681,13.62616 -43.66717,54.28919 -45.05273,52.91601 -0.36998,-0.36666 2.91552,-6.66666 7.30273,-14 4.3872,-7.33333 11.87166,-21.13268 16.63086,-30.66601 4.75921,-9.53333 9.38407,-18.23399 10.27734,-19.33399 0.89328,-1.1 2.48221,-3.8 3.53125,-6 1.04905,-2.2 2.97273,-5.43078 4.27539,-7.17968 3.55948,-4.77878 3.20087,-14.23972 -0.63085,-16.63086 -3.07381,-1.91818 -5.49736,-3.01983 -7.67579,-3.02149 z m -436.12695,6.55664 c -1.0606,-0.0775 -2.19039,0.24834 -3.87305,0.94532 -2.19568,0.90948 -3.99218,2.35358 -3.99218,3.20898 0,0.8554 -1.77512,3.63292 -3.94532,6.17188 -2.1702,2.53896 -3.9701,5.60178 -4,6.80664 -0.0298,1.20488 -0.95468,2.53686 -2.05468,2.95898 -1.13636,0.43606 -2,2.42248 -2,4.60156 0,2.14187 -1.17674,4.90223 -2.66602,6.25 -1.46666,1.32732 -2.66601,2.95797 -2.66601,3.625 -1e-5,0.66701 -1.8,2.72696 -4,4.57813 -2.200008,1.85119 -4.000005,4.40799 -4.000005,5.68164 0,1.27365 -1.443651,3.67152 -3.207031,5.32812 -1.76336,1.6566 -3.603204,5.13455 -4.089844,7.72852 -0.53136,2.83242 -2.447312,6.03047 -4.794922,8.00586 -2.14999,1.8091 -3.908203,3.89891 -3.908203,4.64453 0,0.74561 -1.500644,3.13956 -3.333984,5.31836 -1.83333,2.17878 -3.333985,5.32096 -3.333985,6.98437 0,1.66342 -1.263884,4.16748 -2.808594,5.56446 -1.54469,1.397 -3.885864,4.64036 -5.203124,7.20703 -1.31727,2.56666 -3.952722,6.12061 -5.857422,7.89844 -2.07734,1.93897 -3.462891,4.67584 -3.462891,6.83789 0,1.98238 -0.9,4.35075 -2,5.26367 -1.1,0.91292 -2,2.59788 -2,3.74414 0,1.14628 -1.099326,3.32201 -2.441406,4.83594 -1.34208,1.51393 -3.210384,5.45306 -4.152344,8.75195 -0.94196,3.29891 -3.442624,7.96895 -5.558594,10.37891 -2.11596,2.40995 -3.847656,4.93793 -3.847656,5.61718 0,0.67925 -1.120928,2.30724 -2.490234,3.61914 -1.369308,1.3119 -3.183607,4.53698 -4.03125,7.16602 -0.847642,2.62904 -3.326718,6.49054 -5.509766,8.58203 -2.183049,2.0915 -3.96875,5.17869 -3.96875,6.85938 0,5.70471 -9.375421,31.35872 -12.9179688,35.34765 -3.7980589,4.27663 -4.4985244,11.70891 -1.6328124,17.32617 2.4724719,4.84644 2.9284001,5.10547 8.9960942,5.10547 6.874138,0 6.107808,0.73752 13.158203,-12.66797 0.771368,-1.46667 2.147505,-5.06667 3.058593,-8 0.911088,-2.93333 2.713942,-6.53333 4.00586,-8 1.29191,-1.46667 2.671123,-4.46601 3.064453,-6.66601 1.70184,-9.51904 3.54696,-14.09018 8.09375,-20.04492 2.66219,-3.48656 4.839844,-6.90506 4.839844,-7.59766 0,-3.5677 14.120569,-29.02344 16.099609,-29.02344 0.67839,0 1.234375,-1.17714 1.234375,-2.61523 0,-1.43811 1.160345,-3.69476 2.578125,-5.01563 4.99019,-4.64906 8.796022,-11.79979 11.201172,-21.03711 1.33657,-5.13333 3.48808,-10.53333 4.78125,-12 2.16793,-2.45878 6.337759,-9.42804 12.199219,-20.39453 1.291799,-2.41689 2.915219,-5.11689 3.609379,-6 0.69416,-0.88312 1.64494,-3.20479 2.11132,-5.16015 0.46636,-1.95535 3.24884,-6.05489 6.1836,-9.10938 3.43205,-3.57208 5.33594,-6.78895 5.33594,-9.01758 0,-3.5626 8.73428,-18.15484 13.38671,-22.36523 1.5177,-1.3735 2.6161,-4.0954 2.6211,-6.49219 0.005,-2.26967 0.90452,-5.84482 2,-7.94531 2.94677,-5.65017 2.49259,-9.79108 -1.34961,-12.3086 -1.4083,-0.92275 -2.40034,-1.40495 -3.46094,-1.48242 z m 270.05664,26.40625 c 1.65382,0.0619 3.67972,0.67393 6.41406,1.81641 4.57783,1.91273 4.6411,2.0471 3.6211,7.625 -0.6729,3.6799 -2.25638,6.65006 -4.49805,8.4375 -1.90244,1.51696 -3.45898,3.74174 -3.45898,4.94531 0,1.20358 -2.16824,4.48098 -4.81836,7.28321 -2.65011,2.8022 -5.36048,6.51204 -6.02344,8.24414 -0.84801,2.21563 -1.95707,2.95314 -3.74219,2.48632 -1.39554,-0.36494 -5.27756,-0.15112 -8.62695,0.47461 -3.34938,0.62574 -11.9468,1.4223 -19.10547,1.76953 -7.15867,0.34722 -17.51562,1.06271 -23.01562,1.5918 l -10,0.96289 7.91406,-7.21679 c 4.35256,-3.96922 9.75256,-9.23058 12,-11.69141 3.95649,-4.33217 6.4675,-5.97244 17.52929,-11.44141 13.62457,-6.73603 21.8843,-10.08398 24.87305,-10.08398 1.79816,0 4.35628,-1.19935 5.6836,-2.66602 1.61571,-1.78534 3.12756,-2.61669 5.2539,-2.53711 z m 214.35156,93.41797 c 0.33486,0.14161 -1.20542,2.9943 -3.60937,6.64453 -2.56423,3.89357 -4.66406,7.61434 -4.66406,8.26758 0,0.65326 -1.8,3.23849 -4,5.74414 -2.2,2.50567 -4,5.43332 -4,6.50781 0,1.07448 -0.46972,1.95508 -1.04493,1.95508 -0.57523,0 -2.046,1.64936 -3.26953,3.66602 -4.28836,7.06822 -13.65077,15.94969 -17.68554,16.7793 -2.2,0.45235 -5.35,1.20788 -7,1.67773 -1.65,0.46981 -3,0.42971 -3,-0.0898 0,-1.93435 16.19238,-21.92567 24.86718,-30.70118 6.9802,-7.06122 21.39223,-19.69674 23.31446,-20.4414 0.0393,-0.0152 0.0695,-0.0192 0.0918,-0.01 z"
       style="fill:#ffffff;stroke-width:1.33333"
       id="path880" />
    <g
       transform="matrix(1,0,0,1.0528675,1346.7949,62.118658)"
       style="opacity:1;fill:#f87c18;fill-opacity:1"
       id="g886">
      <path
         id="path888"
         d="M -380.76925,854.968 C -225.64101,583.49363 -227.40391,583.49363 -227.40391,583.49363 L -72.275608,858.49364 Z"
         style="color:#000000;font-style:normal;font-variant:normal;font-weight:normal;font-stretch:normal;font-size:medium;line-height:normal;font-family:sans-serif;font-variant-ligatures:normal;font-variant-position:normal;font-variant-caps:normal;font-variant-numeric:normal;font-variant-alternates:normal;font-variant-east-asian:normal;font-feature-settings:normal;font-variation-settings:normal;text-indent:0;text-align:start;text-decoration:none;text-decoration-line:none;text-decoration-style:solid;text-decoration-color:#000000;letter-spacing:normal;word-spacing:normal;text-transform:none;writing-mode:lr-tb;direction:ltr;text-orientation:mixed;dominant-baseline:auto;baseline-shift:baseline;text-anchor:start;white-space:normal;shape-padding:0;shape-margin:0;inline-size:0;clip-rule:nonzero;display:inline;overflow:visible;visibility:visible;isolation:auto;mix-blend-mode:normal;color-interpolation:sRGB;color-interpolation-filters:linearRGB;solid-color:#000000;solid-opacity:1;vector-effect:none;fill:#f87c18;fill-opacity:1;fill-rule:nonzero;stroke:none;stroke-width:1px;stroke-linecap:butt;stroke-linejoin:miter;stroke-miterlimit:4;stroke-dasharray:none;stroke-dashoffset:0;stroke-opacity:1;color-rendering:auto;image-rendering:auto;shape-rendering:auto;text-rendering:auto;enable-background:accumulate;stop-color:#000000;stop-opacity:1" />
      <path
         id="path890"
         d="m -228.25977,582.99414 0.30274,0.53711 c -0.0296,0.0685 -0.0441,0.1071 -0.125,0.27539 -0.24869,0.51754 -0.78439,1.57544 -1.91211,3.69336 -2.25544,4.23583 -6.88112,12.71789 -16.35547,29.68359 -18.9487,33.93142 -57.2898,101.80064 -134.85351,237.53711 l -0.42188,0.73828 0.84961,0.01 309.361328,3.53516 -155.546878,-275.74219 -0.008,-0.0137 -0.002,0.002 c -0.0154,-0.0201 -0.0937,-0.12299 -0.0937,-0.12305 -7e-5,-6e-5 -0.16793,-0.1035 -0.16797,-0.10351 -5e-5,-2e-5 -0.17188,-0.0293 -0.17188,-0.0293 z m 0.90039,1.59375 154.222661,273.39649 -306.779301,-3.50586 c 77.19828,-135.10057 115.5321,-202.94926 134.43946,-236.80664 9.47595,-16.96859 14.10345,-25.45344 16.36523,-29.70118 1.02554,-1.92601 1.46596,-2.79832 1.75195,-3.38281 z"
         style="color:#000000;font-style:normal;font-variant:normal;font-weight:normal;font-stretch:normal;font-size:medium;line-height:normal;font-family:sans-serif;font-variant-ligatures:normal;font-variant-position:normal;font-variant-caps:normal;font-variant-numeric:normal;font-variant-alternates:normal;font-variant-east-asian:normal;font-feature-settings:normal;font-variation-settings:normal;text-indent:0;text-align:start;text-decoration:none;text-decoration-line:none;text-decoration-style:solid;text-decoration-color:#000000;letter-spacing:normal;word-spacing:normal;text-transform:none;writing-mode:lr-tb;direction:ltr;text-orientation:mixed;dominant-baseline:auto;baseline-shift:baseline;text-anchor:start;white-space:normal;shape-padding:0;shape-margin:0;inline-size:0;clip-rule:nonzero;display:inline;overflow:visible;visibility:visible;isolation:auto;mix-blend-mode:normal;color-interpolation:sRGB;color-interpolation-filters:linearRGB;solid-color:#000000;solid-opacity:1;vector-effect:none;fill:#f87c18;fill-opacity:1;fill-rule:nonzero;stroke:none;stroke-width:1px;stroke-linecap:butt;stroke-linejoin:miter;stroke-miterlimit:4;stroke-dasharray:none;stroke-dashoffset:0;stroke-opacity:1;color-rendering:auto;image-rendering:auto;shape-rendering:auto;text-rendering:auto;enable-background:accumulate;stop-color:#000000;stop-opacity:1" />
    </g>
    <g
       transform="translate(1417.3078,137.50001)"
       style="opacity:1"
       id="g926">
      <g
         style="opacity:1"
         id="g938">
        <path
           id="path942"
           d="m -234.97928,693.10917 -0.2891,0.0156 -0.09,0.006 -73.7715,3.75 -73.12313,8.82422 -70.70508,23.99023 -65.98242,30.79299 -62.95313,36.5547 6.0293,10.373 62.48438,-36.2812 64.90039,-30.2871 68.90254,-23.37711 71.47275,-8.625 72.9218,-3.70704 63.3086,5.5293 51.2539,12.81445 131.871104,65.9355 6.1172,-8.0214 -77.1348,-86.00785 -8.9394,8.00782 53.0488,59.15043 -100.773404,-50.38676 -53.4531,-13.36328 z"
           style="color:#000000;font-style:normal;font-variant:normal;font-weight:normal;font-stretch:normal;font-size:medium;line-height:normal;font-family:sans-serif;font-variant-ligatures:normal;font-variant-position:normal;font-variant-caps:normal;font-variant-numeric:normal;font-variant-alternates:normal;font-variant-east-asian:normal;font-feature-settings:normal;font-variation-settings:normal;text-indent:0;text-align:start;text-decoration:none;text-decoration-line:none;text-decoration-style:solid;text-decoration-color:#000000;letter-spacing:normal;word-spacing:normal;text-transform:none;writing-mode:lr-tb;direction:ltr;text-orientation:mixed;dominant-baseline:auto;baseline-shift:baseline;text-anchor:start;white-space:normal;shape-padding:0;shape-margin:0;inline-size:0;clip-rule:nonzero;display:inline;overflow:visible;visibility:visible;isolation:auto;mix-blend-mode:normal;color-interpolation:sRGB;color-interpolation-filters:linearRGB;solid-color:#000000;solid-opacity:1;vector-effect:none;fill:#000000;fill-opacity:1;fill-rule:nonzero;stroke:#000000;stroke-width:8;stroke-linecap:butt;stroke-linejoin:miter;stroke-miterlimit:4;stroke-dasharray:none;stroke-dashoffset:0;stroke-opacity:1;color-rendering:auto;image-rendering:auto;shape-rendering:auto;text-rendering:auto;enable-background:accumulate;stop-color:#000000;stop-opacity:1" />
      </g>
    </g>
    <g
       transform="translate(1417.3078,137.50001)"
       style="opacity:1"
       id="g932">
      <g
         style="opacity:1"
         id="g944">
        <path
           sodipodi:nodetypes="ccccccc"
           id="path948"
           d="m -121.07108,766.27521 -0.2969,3.9882 -0.1113,1.4961 -0.4825,6.4844 126.5087329,3.99223 1.1109526,-7.55975 z"
           style="color:#000000;font-style:normal;font-variant:normal;font-weight:normal;font-stretch:normal;font-size:medium;line-height:normal;font-family:sans-serif;font-variant-ligatures:normal;font-variant-position:normal;font-variant-caps:normal;font-variant-numeric:normal;font-variant-alternates:normal;font-variant-east-asian:normal;font-feature-settings:normal;font-variation-settings:normal;text-indent:0;text-align:start;text-decoration:none;text-decoration-line:none;text-decoration-style:solid;text-decoration-color:#000000;letter-spacing:normal;word-spacing:normal;text-transform:none;writing-mode:lr-tb;direction:ltr;text-orientation:mixed;dominant-baseline:auto;baseline-shift:baseline;text-anchor:start;white-space:normal;shape-padding:0;shape-margin:0;inline-size:0;clip-rule:nonzero;display:inline;overflow:visible;visibility:visible;isolation:auto;mix-blend-mode:normal;color-interpolation:sRGB;color-interpolation-filters:linearRGB;solid-color:#000000;solid-opacity:1;vector-effect:none;fill:#000000;fill-opacity:1;fill-rule:nonzero;stroke:#000000;stroke-width:8;stroke-linecap:butt;stroke-linejoin:miter;stroke-miterlimit:4;stroke-dasharray:none;stroke-dashoffset:0;stroke-opacity:1;color-rendering:auto;image-rendering:auto;shape-rendering:auto;text-rendering:auto;enable-background:accumulate;stop-color:#000000;stop-opacity:1" />
      </g>
    </g>
    <path
       transform="translate(3.7998052,594.78906)"
       id="path982"
       d="m 831.70765,347.10591 c -2.4755,-4.23952 -4.5009,-7.99492 -4.5009,-8.34534 0,-0.35042 14.65419,-9.14853 32.56487,-19.55135 32.19282,-18.69812 32.94228,-19.09114 65.59719,-34.39917 l 33.03232,-15.48495 36.46019,-12.34594 36.46018,-12.34593 37.3951,-4.44511 c 36.4543,-4.33328 38.3044,-4.49097 73.5436,-6.26832 l 36.1486,-1.82323 32.0974,2.76647 32.0975,2.76646 28.0463,6.9465 28.0463,6.9465 41.0474,20.50482 c 22.576,11.27765 41.1441,20.40807 41.2624,20.28982 0.1182,-0.11826 -9.0277,-10.51263 -20.3243,-23.0986 -11.2966,-12.58598 -20.5388,-23.09256 -20.5381,-23.34797 6e-4,-0.25542 3.1088,-3.24061 6.9069,-6.63376 l 6.9057,-6.16938 1.734,1.80662 c 1.5644,1.62993 76.9666,85.81969 78.9772,88.18145 0.7317,0.85942 0.22,1.80104 -3.8949,7.16739 -2.6054,3.39788 -4.8215,6.26502 -4.9247,6.37142 -0.1031,0.10641 -3.9335,-1.69965 -8.5118,-4.01346 l -8.3244,-4.20693 -60.4471,-1.90741 c -57.3729,-1.81042 -60.4584,-1.96576 -60.6677,-3.05448 -0.2014,-1.04733 1.0236,-17.95884 1.322,-18.24951 0.071,-0.0689 18.3587,1.10392 40.6399,2.60638 22.2813,1.50246 41.0723,2.72429 41.7579,2.71518 0.6856,-0.009 -17.187,-9.25338 -39.7168,-20.54282 l -40.9632,-20.52626 -24.7898,-6.19194 -24.7897,-6.19193 -31.7858,-2.73655 -31.7858,-2.73656 -35.2137,1.76906 c -34.2213,1.71919 -36.2374,1.89191 -71.5367,6.12873 l -36.323,4.35968 -34.0888,11.52926 -34.08881,11.52926 -32.53011,15.18676 c -32.12887,14.99944 -32.9221,15.4144 -64.30988,33.64266 -17.47887,10.15076 -32.16368,18.60323 -32.63291,18.7833 -0.57673,0.22131 -2.31142,-2.17005 -5.35404,-7.38082 z"
       style="fill:#ffffff;fill-opacity:1;stroke:#ffffff;stroke-width:4.98601;stroke-miterlimit:4;stroke-dasharray:none;stroke-opacity:1" />
  </g>
</svg>
